<svg width="32" height="32" viewBox="0 0 32 32" fill="none" xmlns="http://www.w3.org/2000/svg">
  <rect width="32" height="32" rx="8" fill="#050507"/>
  <path d="M16 6C13 6 10.5 8.5 10.5 11.5c0 1.9 1 3.6 2.5 4.6C20.5 12 23 15 23 11.5c0-3-2.5-5.5-7-5.5Z" stroke="#6D6DFF" stroke-width="1.8" stroke-linecap="round" stroke-linejoin="round"/>
  <path d="M16 26C19 26 21.5 23.5 21.5 20.5c0-1.9-1-3.6-2.5-4.6C11.5 20 9 17 9 20.5c0 3 2.5 5.5 7 5.5Z" stroke="#6D6DFF" stroke-width="1.8" stroke-linecap="round" stroke-linejoin="round"/>
  <circle cx="16" cy="16" r="2.2" fill="#6D6DFF"/>
</svg>
